<?xml version="1.0" standalone="no"?>
<!DOCTYPE svg PUBLIC "-//W3C//DTD SVG 20010904//EN"
 "http://www.w3.org/TR/2001/REC-SVG-20010904/DTD/svg10.dtd">
<svg version="1.0" xmlns="http://www.w3.org/2000/svg"
 width="408.000000pt" height="612.000000pt" viewBox="0 0 408.000000 612.000000"
 preserveAspectRatio="xMidYMid meet">
<metadata>
Created by potrace 1.16, written by Peter Selinger 2001-2019
</metadata>
<g transform="translate(0.000000,612.000000) scale(0.100000,-0.100000)"
fill="#000000" stroke="none">
<path d="M1545 4323 c-104 -21 -264 -118 -335 -202 -19 -22 -42 -42 -52 -44
-10 -3 -18 -14 -18 -25 0 -10 -10 -30 -22 -44 -13 -14 -24 -31 -26 -39 -2 -8
-7 -16 -10 -19 -10 -7 -52 -98 -52 -111 0 -6 -6 -25 -14 -42 -55 -127 -71
-237 -71 -497 1 -187 4 -233 18 -270 9 -25 17 -55 17 -67 0 -12 5 -25 11 -29
6 -3 17 -22 25 -40 8 -19 19 -34 24 -34 6 0 10 -7 10 -15 0 -8 3 -15 8 -15 4
0 25 -16 47 -36 50 -44 106 -81 170 -114 28 -14 53 -29 56 -33 3 -5 10 -8 15
-8 5 1 32 -6 59 -15 112 -37 252 -74 280 -74 16 0 55 -7 85 -15 30 -9 125 -18
211 -22 137 -5 172 -3 280 17 200 36 358 84 467 141 39 21 72 35 72 31 0 -4 4
-2 8 3 4 6 29 26 55 45 64 46 133 114 161 159 13 20 33 70 47 111 21 69 23 92
24 290 0 173 -3 229 -18 289 -10 40 -16 76 -13 78 2 3 -7 29 -20 59 -13 30
-24 59 -24 64 0 5 -5 21 -12 37 -6 15 -12 30 -13 33 -11 34 -33 74 -66 122
-21 32 -38 64 -37 70 2 7 -2 12 -9 11 -13 -3 -83 79 -83 97 0 6 -5 8 -11 4 -6
-3 -14 -2 -18 3 -3 5 -31 26 -61 48 -30 22 -56 43 -58 47 -2 5 -15 8 -28 8
-13 0 -33 6 -44 12 -28 18 -38 3 -45 -72 -4 -36 -8 -67 -10 -70 -2 -3 -6 -64
-10 -135 -3 -72 -8 -148 -10 -170 -3 -22 -8 -74 -10 -115 -3 -41 -8 -77 -13
-80 -4 -4 -176 -3 -382 1 -326 7 -376 10 -386 24 -6 9 -15 46 -19 83 -4 37
-13 105 -21 152 -8 47 -17 105 -20 130 -5 45 -30 212 -40 263 -6 27 -18 31
-69 20z m39 -835 c12 -16 16 -47 16 -115 l0 -93 93 0 c57 -1 98 -5 107 -13 19
-15 24 -51 10 -76 -9 -18 -22 -21 -108 -23 l-97 -3 -2 -70 c-4 -91 -12 -137
-24 -130 -5 4 -9 1 -9 -4 0 -17 -46 -13 -61 5 -9 11 -16 52 -19 108 l-5 91
-98 5 c-94 5 -98 6 -111 32 -13 25 -12 30 6 53 18 24 25 25 114 25 l94 0 0 99
c0 92 2 101 22 115 31 22 54 20 72 -6z m656 -607 c0 -5 -6 -16 -13 -23 -7 -7
-28 -37 -47 -65 -18 -29 -38 -53 -44 -53 -6 0 -33 30 -61 65 -27 36 -53 65
-57 65 -5 0 -8 5 -8 10 0 6 45 10 115 10 64 0 115 -4 115 -9z"/>
</g>
</svg>
